# xmcd CD database file
#
# Track frame offsets:
#	150
#	27107
#	52073
#	89865
#	122683
#	146020
#	165983
#
# Disc length: 2529 seconds
#
# Revision: 2
# Processed by: cddbd v1.4PL0 Copyright (c) Steve Scherf et al.
# Submitted via: CDex 1.51
#
DISCID=5d09df07
DTITLE=Jimmy Dawkins - Hot Wire 81
DYEAR=1994
DGENRE=Blues
TTITLE0=You Just A Baby Child
TTITLE1=Ruff Times
TTITLE2=Welfare Line
TTITLE3=Kold Actions
TTITLE4=Roc-Kin-Sole
TTITLE5=Peeper's Music
TTITLE6=My Way
EXTD=YEAR: 1994
EXTT0=
EXTT1=
EXTT2=
EXTT3=
EXTT4=
EXTT5=
EXTT6=
PLAYORDER=
